<svg width="73" height="35" viewBox="0 0 73 35" fill="none" xmlns="http://www.w3.org/2000/svg">
<path d="M4.37988 7.24658C3.17383 6.8999 2.29492 6.4751 1.74316 5.97217C1.19629 5.46436 0.922852 4.83936 0.922852 4.09717C0.922852 3.25732 1.25732 2.56396 1.92627 2.01709C2.6001 1.46533 3.47412 1.18945 4.54834 1.18945C5.28076 1.18945 5.93262 1.33105 6.50391 1.61426C7.08008 1.89746 7.52441 2.28809 7.83691 2.78613C8.1543 3.28418 8.31299 3.82861 8.31299 4.41943H6.89941C6.89941 3.7749 6.69434 3.26953 6.28418 2.90332C5.87402 2.53223 5.29541 2.34668 4.54834 2.34668C3.85498 2.34668 3.31299 2.50049 2.92236 2.80811C2.53662 3.11084 2.34375 3.5332 2.34375 4.0752C2.34375 4.50977 2.52686 4.87842 2.89307 5.18115C3.26416 5.479 3.8916 5.75244 4.77539 6.00146C5.66406 6.25049 6.35742 6.52637 6.85547 6.8291C7.3584 7.12695 7.72949 7.47607 7.96875 7.87646C8.21289 8.27686 8.33496 8.74805 8.33496 9.29004C8.33496 10.1543 7.99805 10.8477 7.32422 11.3701C6.65039 11.8877 5.74951 12.1465 4.62158 12.1465C3.88916 12.1465 3.20557 12.0073 2.5708 11.729C1.93604 11.4458 1.44531 11.0601 1.09863 10.5718C0.756836 10.0835 0.585938 9.5293 0.585938 8.90918H1.99951C1.99951 9.55371 2.23633 10.064 2.70996 10.4399C3.18848 10.811 3.82568 10.9966 4.62158 10.9966C5.36377 10.9966 5.93262 10.8452 6.32812 10.5425C6.72363 10.2397 6.92139 9.82715 6.92139 9.30469C6.92139 8.78223 6.73828 8.37939 6.37207 8.09619C6.00586 7.80811 5.3418 7.5249 4.37988 7.24658ZM11.8866 5.03467C12.4872 4.29736 13.2685 3.92871 14.2304 3.92871C15.9052 3.92871 16.7499 4.87354 16.7646 6.76318V12H15.4096V6.75586C15.4047 6.18457 15.2729 5.76221 15.0141 5.48877C14.7602 5.21533 14.3622 5.07861 13.8202 5.07861C13.3808 5.07861 12.995 5.1958 12.663 5.43018C12.331 5.66455 12.0722 5.97217 11.8866 6.35303V12H10.5316V0.75H11.8866V5.03467ZM19.0345 7.96436C19.0345 7.18799 19.1858 6.48975 19.4886 5.86963C19.7962 5.24951 20.221 4.771 20.763 4.43408C21.3099 4.09717 21.9324 3.92871 22.6307 3.92871C23.7098 3.92871 24.5813 4.30225 25.2454 5.04932C25.9144 5.79639 26.2488 6.79004 26.2488 8.03027V8.12549C26.2488 8.89697 26.0999 9.59033 25.8021 10.2056C25.5091 10.8159 25.0867 11.292 24.535 11.6338C23.9881 11.9756 23.3582 12.1465 22.6453 12.1465C21.5711 12.1465 20.6995 11.7729 20.0306 11.0259C19.3665 10.2788 19.0345 9.29004 19.0345 8.05957V7.96436ZM20.3968 8.12549C20.3968 9.00439 20.5994 9.70996 21.0047 10.2422C21.4148 10.7744 21.9617 11.0405 22.6453 11.0405C23.3338 11.0405 23.8807 10.772 24.2859 10.2349C24.6912 9.69287 24.8938 8.93604 24.8938 7.96436C24.8938 7.09521 24.6863 6.39209 24.2713 5.85498C23.8611 5.31299 23.3143 5.04199 22.6307 5.04199C21.9617 5.04199 21.4222 5.30811 21.012 5.84033C20.6019 6.37256 20.3968 7.13428 20.3968 8.12549ZM35.2424 8.12549C35.2424 9.33154 34.9665 10.3032 34.4147 11.0405C33.863 11.7778 33.1159 12.1465 32.1735 12.1465C31.2116 12.1465 30.4548 11.8413 29.903 11.231V15.0469H28.548V4.0752H29.7858L29.8518 4.9541C30.4035 4.27051 31.1701 3.92871 32.1516 3.92871C33.1037 3.92871 33.8557 4.2876 34.4074 5.00537C34.9641 5.72314 35.2424 6.72168 35.2424 8.00098V8.12549ZM33.8874 7.97168C33.8874 7.07812 33.697 6.37256 33.3161 5.85498C32.9353 5.3374 32.4128 5.07861 31.7487 5.07861C30.9284 5.07861 30.3132 5.44238 29.903 6.16992V9.95654C30.3083 10.6792 30.9284 11.0405 31.7634 11.0405C32.4128 11.0405 32.9279 10.7842 33.3088 10.2715C33.6945 9.75391 33.8874 8.9873 33.8874 7.97168ZM39.0431 12H37.6881V4.0752H39.0431V12ZM37.5782 1.97314C37.5782 1.75342 37.6441 1.56787 37.776 1.4165C37.9127 1.26514 38.1129 1.18945 38.3766 1.18945C38.6402 1.18945 38.8404 1.26514 38.9771 1.4165C39.1139 1.56787 39.1822 1.75342 39.1822 1.97314C39.1822 2.19287 39.1139 2.37598 38.9771 2.52246C38.8404 2.66895 38.6402 2.74219 38.3766 2.74219C38.1129 2.74219 37.9127 2.66895 37.776 2.52246C37.6441 2.37598 37.5782 2.19287 37.5782 1.97314ZM42.4849 12V5.12256H41.2324V4.0752H42.4849V3.26221C42.4849 2.4126 42.7119 1.75586 43.166 1.29199C43.6201 0.828125 44.2622 0.596191 45.0923 0.596191C45.4048 0.596191 45.7148 0.637695 46.0225 0.720703L45.9492 1.81934C45.7197 1.77539 45.4756 1.75342 45.2168 1.75342C44.7773 1.75342 44.438 1.88281 44.1987 2.1416C43.9595 2.39551 43.8398 2.76172 43.8398 3.24023V4.0752H45.5317V5.12256H43.8398V12H42.4849ZM50.226 10.0151L52.0717 4.0752H53.5219L50.3358 13.2231C49.8427 14.5415 49.059 15.2007 47.9848 15.2007L47.7284 15.1787L47.223 15.0835V13.9849L47.5893 14.0142C48.0482 14.0142 48.4047 13.9214 48.6586 13.7358C48.9174 13.5503 49.1298 13.2109 49.2958 12.7178L49.5961 11.9121L46.7689 4.0752H48.2484L50.226 10.0151ZM2.74658 31H1.34033V20.3359H2.74658V31ZM6.99404 23.0752L7.03799 24.0713C7.64346 23.3096 8.43447 22.9287 9.41104 22.9287C11.0858 22.9287 11.9306 23.8735 11.9452 25.7632V31H10.5902V25.7559C10.5854 25.1846 10.4535 24.7622 10.1947 24.4888C9.94082 24.2153 9.54287 24.0786 9.00088 24.0786C8.56143 24.0786 8.17568 24.1958 7.84365 24.4302C7.51162 24.6646 7.25283 24.9722 7.06729 25.353V31H5.7123V23.0752H6.99404ZM16.4271 21.1562V23.0752H17.9065V24.1226H16.4271V29.0371C16.4271 29.3545 16.493 29.5938 16.6248 29.7549C16.7566 29.9111 16.9812 29.9893 17.2986 29.9893C17.4549 29.9893 17.6697 29.96 17.9432 29.9014V31C17.5867 31.0977 17.24 31.1465 16.9031 31.1465C16.2977 31.1465 15.8411 30.9634 15.5335 30.5972C15.2259 30.231 15.0721 29.7109 15.0721 29.0371V24.1226H13.6292V23.0752H15.0721V21.1562H16.4271ZM23.3845 31.1465C22.3103 31.1465 21.4362 30.7949 20.7624 30.0918C20.0886 29.3838 19.7517 28.439 19.7517 27.2573V27.0083C19.7517 26.2222 19.9006 25.5215 20.1984 24.9062C20.5012 24.2861 20.9211 23.8027 21.4582 23.4561C22.0002 23.1045 22.5861 22.9287 23.216 22.9287C24.2463 22.9287 25.0471 23.2681 25.6184 23.9468C26.1896 24.6255 26.4753 25.5972 26.4753 26.8618V27.4258H21.1066C21.1262 28.207 21.3532 28.8394 21.7878 29.3228C22.2272 29.8013 22.7839 30.0405 23.4577 30.0405C23.9362 30.0405 24.3415 29.9429 24.6735 29.7476C25.0056 29.5522 25.2961 29.2935 25.5451 28.9712L26.3728 29.6157C25.7087 30.6362 24.7126 31.1465 23.3845 31.1465ZM23.216 24.042C22.6691 24.042 22.2102 24.2422 21.8391 24.6426C21.468 25.0381 21.2385 25.5947 21.1506 26.3125H25.1203V26.21C25.0812 25.5215 24.8957 24.9893 24.5637 24.6133C24.2316 24.2324 23.7824 24.042 23.216 24.042ZM28.3277 26.9717C28.3277 25.7363 28.6134 24.7549 29.1847 24.0273C29.756 23.2949 30.5128 22.9287 31.4552 22.9287C32.422 22.9287 33.1764 23.2705 33.7184 23.9541L33.7843 23.0752H35.0221V30.8096C35.0221 31.835 34.7169 32.6431 34.1065 33.2339C33.5011 33.8247 32.6856 34.1201 31.6603 34.1201C31.089 34.1201 30.5299 33.998 29.983 33.7539C29.4361 33.5098 29.0187 33.1753 28.7306 32.7505L29.4337 31.9375C30.0147 32.6553 30.7252 33.0142 31.565 33.0142C32.2242 33.0142 32.7369 32.8286 33.1031 32.4575C33.4742 32.0864 33.6598 31.564 33.6598 30.8901V30.209C33.1178 30.834 32.378 31.1465 31.4405 31.1465C30.5128 31.1465 29.7608 30.7729 29.1847 30.0259C28.6134 29.2788 28.3277 28.2607 28.3277 26.9717ZM29.69 27.1255C29.69 28.019 29.8731 28.7222 30.2394 29.2349C30.6056 29.7427 31.1183 29.9966 31.7774 29.9966C32.6319 29.9966 33.2594 29.6084 33.6598 28.832V25.2139C33.2447 24.457 32.6222 24.0786 31.7921 24.0786C31.1329 24.0786 30.6178 24.335 30.2467 24.8477C29.8756 25.3604 29.69 26.1196 29.69 27.1255ZM41.5034 24.291C41.2983 24.2568 41.0762 24.2397 40.8369 24.2397C39.9482 24.2397 39.3452 24.6182 39.0278 25.375V31H37.6729V23.0752H38.9912L39.0132 23.9907C39.4575 23.2827 40.0874 22.9287 40.9028 22.9287C41.1665 22.9287 41.3667 22.9629 41.5034 23.0312V24.291ZM47.9555 31C47.8773 30.8438 47.8139 30.5654 47.765 30.165C47.1352 30.8193 46.3832 31.1465 45.5092 31.1465C44.7279 31.1465 44.0858 30.9268 43.5829 30.4873C43.0849 30.043 42.8358 29.4814 42.8358 28.8027C42.8358 27.9775 43.1483 27.3379 43.7733 26.8838C44.4032 26.4248 45.287 26.1953 46.4247 26.1953H47.7431V25.5728C47.7431 25.0991 47.6015 24.7231 47.3183 24.4448C47.0351 24.1616 46.6176 24.02 46.0658 24.02C45.5824 24.02 45.1771 24.1421 44.85 24.3862C44.5229 24.6304 44.3593 24.9258 44.3593 25.2725H42.997C42.997 24.877 43.1361 24.4961 43.4145 24.1299C43.6977 23.7588 44.0785 23.4658 44.557 23.251C45.0404 23.0361 45.5702 22.9287 46.1464 22.9287C47.0595 22.9287 47.7748 23.1582 48.2924 23.6172C48.81 24.0713 49.0785 24.6987 49.098 25.4995V29.147C49.098 29.8745 49.1908 30.4531 49.3764 30.8828V31H47.9555ZM45.7069 29.9673C46.1317 29.9673 46.5346 29.8574 46.9154 29.6377C47.2963 29.418 47.5722 29.1323 47.7431 28.7808V27.1548H46.6811C45.0209 27.1548 44.1908 27.6406 44.1908 28.6123C44.1908 29.0371 44.3324 29.3691 44.6156 29.6084C44.8988 29.8477 45.2626 29.9673 45.7069 29.9673ZM53.6604 21.1562V23.0752H55.1399V24.1226H53.6604V29.0371C53.6604 29.3545 53.7264 29.5938 53.8582 29.7549C53.99 29.9111 54.2146 29.9893 54.532 29.9893C54.6883 29.9893 54.9031 29.96 55.1766 29.9014V31C54.8201 31.0977 54.4734 31.1465 54.1365 31.1465C53.5311 31.1465 53.0745 30.9634 52.7669 30.5972C52.4593 30.231 52.3055 29.7109 52.3055 29.0371V24.1226H50.8626V23.0752H52.3055V21.1562H53.6604ZM60.6179 31.1465C59.5437 31.1465 58.6696 30.7949 57.9958 30.0918C57.322 29.3838 56.9851 28.439 56.9851 27.2573V27.0083C56.9851 26.2222 57.134 25.5215 57.4318 24.9062C57.7346 24.2861 58.1545 23.8027 58.6916 23.4561C59.2336 23.1045 59.8195 22.9287 60.4494 22.9287C61.4797 22.9287 62.2805 23.2681 62.8518 23.9468C63.423 24.6255 63.7087 25.5972 63.7087 26.8618V27.4258H58.34C58.3596 28.207 58.5866 28.8394 59.0212 29.3228C59.4606 29.8013 60.0173 30.0405 60.6911 30.0405C61.1696 30.0405 61.5749 29.9429 61.9069 29.7476C62.239 29.5522 62.5295 29.2935 62.7785 28.9712L63.6062 29.6157C62.9421 30.6362 61.946 31.1465 60.6179 31.1465ZM60.4494 24.042C59.9025 24.042 59.4436 24.2422 59.0725 24.6426C58.7014 25.0381 58.4719 25.5947 58.384 26.3125H62.3537V26.21C62.3146 25.5215 62.1291 24.9893 61.7971 24.6133C61.465 24.2324 61.0158 24.042 60.4494 24.042ZM65.5538 26.9717C65.5538 25.7559 65.8419 24.7793 66.4181 24.042C66.9942 23.2998 67.7486 22.9287 68.6813 22.9287C69.609 22.9287 70.3438 23.2461 70.8858 23.8809V19.75H72.2408V31H70.9957L70.9298 30.1504C70.3878 30.8145 69.6334 31.1465 68.6666 31.1465C67.7486 31.1465 66.9991 30.7705 66.4181 30.0186C65.8419 29.2666 65.5538 28.2852 65.5538 27.0742V26.9717ZM66.9088 27.1255C66.9088 28.0239 67.0943 28.7271 67.4654 29.2349C67.8365 29.7427 68.3492 29.9966 69.0035 29.9966C69.8629 29.9966 70.4903 29.6108 70.8858 28.8394V25.1992C70.4806 24.4521 69.858 24.0786 69.0182 24.0786C68.3541 24.0786 67.8365 24.335 67.4654 24.8477C67.0943 25.3604 66.9088 26.1196 66.9088 27.1255Z" fill="#A1A1A1"/>
</svg>
